<svg xmlns="http://www.w3.org/2000/svg"  viewBox="0 0 64 64" width="64px" height="64px"><path d="M 28 12 C 11.028 12 0.41053125 21.247 0.01953125 30 L 0 30 L 0 56 L 64 56 L 64 35 L 63.974609 35 C 63.445609 26.549 49.598 20 32 20 L 32 24 C 48.501 24 60 30.061 60 35.5 L 60 52 L 52 52 L 52 48 C 52 45.791 50.209 44 48 44 C 45.791 44 44 45.791 44 48 L 44 52 L 38 52 L 38 48 C 38 45.791 36.209 44 34 44 C 31.791 44 30 45.791 30 48 L 30 52 L 24 52 L 24 48 C 24 45.791 22.209 44 20 44 C 17.791 44 16 45.791 16 48 L 16 52 L 8 52 L 8 30.5 C 8 24.421 16.341 16 32 16 L 32 12 L 28 12 z M 20 32 C 17.791 32 16 33.791 16 36 L 16 40 L 24 40 L 24 36 C 24 33.791 22.209 32 20 32 z M 34 32 C 31.791 32 30 33.791 30 36 L 30 40 L 38 40 L 38 36 C 38 33.791 36.209 32 34 32 z M 48 32 C 45.791 32 44 33.791 44 36 L 44 40 L 52 40 L 52 36 C 52 33.791 50.209 32 48 32 z"/></svg>