<svg xmlns="http://www.w3.org/2000/svg"  viewBox="0 0 48 48" width="48px" height="48px"><path d="M 13.804688 10 C 6.4520916 10 1 16.100642 1 24 C 1 31.899358 6.4512141 38 13.804688 38 C 18.224891 38 21.576661 35.022513 23.84375 32.115234 C 23.901576 32.041079 23.94391 31.973825 24 31.900391 C 26.290552 34.923993 29.660507 38 34.195312 38 C 41.547908 38 47.001953 31.899496 47.001953 24 C 47.001953 16.100642 41.548785 10 34.195312 10 C 29.775109 10 26.425292 12.977487 24.158203 15.884766 C 24.10042 15.958866 24.058007 16.026229 24.001953 16.099609 C 21.71139 13.075701 18.33997 10 13.804688 10 z M 13.804688 13 C 17.242908 13 20.194259 15.858124 22.210938 18.746094 C 21.732819 19.556445 21.355374 20.288294 21.052734 20.914062 C 20.434529 19.916273 19.925393 18.930141 19.085938 17.986328 C 17.701113 16.429349 15.999167 15 13.804688 15 C 11.189933 15 9.0842405 16.266832 7.8144531 18.013672 C 6.5446658 19.760512 6 21.920883 6 24 C 6 26.079117 6.5445495 28.239386 7.8144531 29.986328 C 9.0843567 31.73327 11.189589 33.00135 13.804688 33.001953 L 13.806641 33.001953 C 16.461236 33.001953 18.393258 30.993395 19.919922 29.005859 C 21.416605 27.057355 22.503721 24.955429 23.037109 23.705078 L 23.039062 23.701172 L 23.0625 23.654297 L 23.072266 23.628906 L 23.082031 23.605469 C 23.304377 23.071926 24.533025 20.28294 26.523438 17.730469 C 28.513767 15.178 31.157518 13 34.195312 13 C 39.943841 13 44.001953 17.413358 44.001953 24 C 44.001953 30.586504 39.942717 35 34.195312 35 C 30.757977 35 27.807662 32.14307 25.791016 29.255859 C 26.273283 28.437908 26.651629 27.698846 26.955078 27.070312 C 27.518458 27.984185 27.908152 28.834997 28.658203 29.71875 C 30.090294 31.406122 31.864391 32.998047 34.195312 32.998047 C 36.810066 32.998047 38.91576 31.733168 40.185547 29.986328 C 41.455334 28.239488 42 26.077164 42 23.998047 C 42 21.918929 41.455334 19.758558 40.185547 18.011719 C 38.91576 16.264879 36.810066 14.998047 34.195312 14.998047 C 31.540717 14.998047 29.606742 17.006605 28.080078 18.994141 C 26.581043 20.945707 25.493412 23.054966 24.960938 24.304688 L 24.9375 24.345703 L 24.923828 24.382812 L 24.917969 24.394531 C 24.695623 24.928074 23.466974 27.71706 21.476562 30.269531 C 19.486193 32.822002 16.842483 35 13.804688 35 C 8.0561599 35 4 30.586642 4 24 C 4 17.413358 8.0572824 13 13.804688 13 z M 34.195312 17.998047 C 35.91256 17.998047 36.958101 18.677183 37.757812 19.777344 C 38.557525 20.877504 39 22.465164 39 23.998047 C 39 25.530929 38.557525 27.120543 37.757812 28.220703 C 36.958101 29.320863 35.91256 29.998047 34.195312 29.998047 C 33.421234 29.998047 32.130223 29.173472 30.945312 27.777344 C 29.953713 26.608983 29.187066 25.233501 28.560547 24.060547 C 29.093559 23.025293 29.567697 21.985159 30.460938 20.822266 C 31.764024 19.125801 33.313908 17.998047 34.195312 17.998047 z M 13.804688 18 C 14.533207 18 15.718777 18.713448 16.845703 19.980469 C 17.890239 21.154856 18.796497 22.657311 19.464844 23.896484 C 18.931484 24.937126 18.445894 25.999689 17.541016 27.177734 C 16.237929 28.874199 14.688046 30.001953 13.806641 30.001953 C 12.088738 30.001557 11.042034 29.322964 10.242188 28.222656 C 9.4423406 27.122348 9 25.532883 9 24 C 9 22.467117 9.4424744 20.877504 10.242188 19.777344 C 11.041899 18.677183 12.08744 18 13.804688 18 z"/></svg>